<?xml version="1.0" encoding="utf-8"?>
<!-- Generator: Adobe Illustrator 24.2.1, SVG Export Plug-In . SVG Version: 6.00 Build 0)  -->
<svg version="1.1" id="Capa_1" xmlns="http://www.w3.org/2000/svg" xmlns:xlink="http://www.w3.org/1999/xlink" x="0px" y="0px"
	 viewBox="0 0 1080 1080" style="enable-background:new 0 0 1080 1080;" xml:space="preserve">
<style type="text/css">
	.st0{fill:#FFFFFF;}
	.st1{fill:#ED1B24;}
	.st2{fill:#490F1F;}
</style>
<g>
	<g>
		<path class="st0" d="M938.95,692.68c-1.3,0-2.36-1.06-2.36-2.36v-10.54c0-1.3,1.06-2.36,2.36-2.36h14.06
			c1.3,0,2.36,1.06,2.36,2.36v10.54c0,1.3-1.06,2.36-2.36,2.36H938.95z"/>
		<path class="st0" d="M953.01,679.78v10.54h-14.06v-10.54H953.01z"/>
		<path class="st0" d="M1017.3,692.07c-0.92,0-1.76-0.54-2.14-1.37l-3.22-6.99H990.5l-3.22,6.99c-0.39,0.84-1.22,1.37-2.14,1.37
			H963.7c-0.83,0-1.6-0.44-2.02-1.15c-0.43-0.71-0.45-1.59-0.05-2.32l26.2-48.84c0.41-0.77,1.21-1.24,2.08-1.24h22.64
			c0.87,0,1.67,0.48,2.08,1.24l26.2,48.84c0.39,0.73,0.37,1.61-0.05,2.32c-0.43,0.71-1.19,1.15-2.02,1.15H1017.3z M1004.23,667.08
			l-3-6.48l-3.02,6.48H1004.23z"/>
		<path class="st0" d="M989.9,640.88h22.64l26.2,48.84h-21.44l-3.85-8.36h-24.45l-3.85,8.36H963.7L989.9,640.88z M994.51,669.44
			h13.41l-6.69-14.43L994.51,669.44z"/>
		<g>
			<path class="st0" d="M897.71,692.95c-13.67-0.03-23.14-2.89-28.97-8.75c-4.23-4.25-6.35-10.02-6.33-17.16v-3.51
				c-0.04-9.33,3.6-16.27,10.8-20.6c5.86-3.52,13.87-5.26,24.49-5.3c9.97,0.02,17.92,1.63,23.64,4.8
				c7.06,3.9,10.95,10.15,11.56,18.56c0.05,0.65-0.18,1.3-0.62,1.78c-0.45,0.48-1.07,0.75-1.73,0.75h-19.27
				c-0.99,0-1.87-0.61-2.21-1.54c-1.11-2.98-4.6-4.31-11.34-4.31c-9.92,0.14-11.82,2.68-11.76,7.01c0,0.01,0,1.24,0,1.25
				c-0.06,4.22,1.89,6.87,11.76,7.01c6.75,0,10.24-1.34,11.33-4.33c0.34-0.93,1.22-1.55,2.22-1.55h19.27c0.65,0,1.28,0.27,1.73,0.75
				c0.45,0.48,0.67,1.12,0.62,1.78c-0.61,8.43-4.5,14.69-11.56,18.59C915.62,691.35,907.67,692.95,897.71,692.95
				C897.72,692.95,897.72,692.95,897.71,692.95z"/>
		</g>
		<g>
			<path class="st0" d="M930.55,669.42c-1.18,16.29-15.47,21.17-32.84,21.17c-18.09-0.04-33.01-5.28-32.94-23.54v-3.52
				c-0.07-18.23,14.86-23.47,32.94-23.54c17.37,0.04,31.65,4.92,32.84,21.17h-19.27c-1.76-4.74-7.11-5.85-13.56-5.85
				c-7.68,0.11-14.21,1.47-14.1,9.4v1.18c-0.11,7.86,6.42,9.29,14.1,9.4c6.46,0,11.84-1.15,13.56-5.89H930.55z"/>
		</g>
		<path class="st1" d="M938.95,679.77v10.54h14.06v-10.54H938.95z"/>
		<path class="st1" d="M1012.54,640.88H989.9l-26.2,48.84h21.44l3.85-8.36h24.45l3.85,8.36h21.44L1012.54,640.88z M994.51,669.44
			l6.72-14.43l6.69,14.43H994.51z"/>
		<path class="st1" d="M897.72,675.31c-7.68-0.11-14.21-1.54-14.1-9.4v-1.18c-0.11-7.93,6.42-9.29,14.1-9.4
			c6.46,0,11.8,1.11,13.56,5.85h19.27c-1.19-16.25-15.47-21.14-32.84-21.17c-18.08,0.07-33.01,5.31-32.94,23.54v3.51
			c-0.07,18.27,14.86,23.51,32.94,23.54c17.37,0,31.65-4.88,32.84-21.18h-19.27C909.56,674.16,904.18,675.31,897.72,675.31z"/>
		<path class="st2" d="M953.23,690.54h-14.5v-10.99h14.5V690.54z M939.17,690.1h13.61V680h-13.61V690.1z"/>
		<path class="st2" d="M1039.11,689.94h-21.95l-3.85-8.36h-24.17l-3.85,8.36h-21.95l26.44-49.28h22.9l0.06,0.12L1039.11,689.94z
			 M1017.44,689.49h20.92l-25.96-48.39h-22.37l-25.96,48.39H985l3.85-8.36h24.74L1017.44,689.49z M1008.27,669.66h-14.11l7.07-15.18
			L1008.27,669.66z M994.86,669.21h12.71l-6.34-13.67L994.86,669.21z"/>
		<path class="st2" d="M897.72,690.82c-12.89-0.02-22.13-2.76-27.46-8.12c-3.81-3.83-5.73-9.1-5.71-15.64v-3.52
			c-0.03-8.54,3.25-14.85,9.77-18.77c5.44-3.27,13.32-4.95,23.39-4.99c20.91,0.04,32.03,7.24,33.06,21.38l0.02,0.24h-19.67
			l-0.05-0.15c-1.46-3.95-5.58-5.7-13.36-5.7c-7.27,0.1-13.99,1.28-13.88,9.18v1.19c-0.11,7.89,6.61,9.08,13.88,9.18
			c7.79,0,11.91-1.77,13.35-5.74l0.05-0.15h19.67l-0.02,0.24C929.75,683.63,918.62,690.82,897.72,690.82z M897.72,640.22
			c-10,0.04-17.79,1.7-23.16,4.93c-6.37,3.83-9.59,10.02-9.55,18.39v3.52c-0.03,6.42,1.85,11.58,5.58,15.33
			c5.25,5.28,14.38,7.97,27.14,7.99c20.51,0,31.48-6.97,32.59-20.73h-18.87c-2.01,5.21-8.38,5.88-13.72,5.88
			c-7.15-0.1-14.44-1.32-14.33-9.63v-1.18c-0.11-8.28,6.82-9.52,14.32-9.63c5.33,0,11.69,0.67,13.72,5.85h18.88
			C929.19,647.23,918.23,640.26,897.72,640.22z"/>
	</g>
	<g>
		<path class="st0" d="M247.1,694.4c-0.18,0-0.36,0-0.54,0h-69.24c-2.44,0-4.42-1.98-4.42-4.42v-77.85c0-2.44,1.98-4.42,4.42-4.42
			h69.24c0.18,0,0.36,0,0.54,0c10.76,0,20.85,4.21,28.43,11.84c8.07,8.13,12.64,19.61,12.55,31.5c0.09,11.86-4.5,23.34-12.58,31.49
			C267.92,690.18,257.83,694.39,247.1,694.4z M240.92,660.88c5.84,0,7.92-5.29,7.92-9.83c0-4.75-2.08-9.83-7.92-9.83h-28.83v19.66
			H240.92z"/>
		<path class="st0" d="M246.59,612.12c21.37-0.29,37.24,17.67,37.07,38.92c0.17,21.14-15.7,39.21-37.07,38.92h-69.27v-77.85H246.59z
			 M240.92,636.8h-33.25v28.5h33.25c7.88,0,12.34-6.43,12.34-14.25C253.25,643.17,248.79,636.8,240.92,636.8z"/>
		<path class="st0" d="M295.61,694.28c-2.44,0-4.42-1.98-4.42-4.42v-77.85c0-2.44,1.98-4.42,4.42-4.42h30.35
			c2.44,0,4.42,1.98,4.42,4.42v77.85c0,2.44-1.98,4.42-4.42,4.42H295.61z"/>
		<path class="st0" d="M325.96,612.01v77.85h-30.35v-77.85H325.96z"/>
		<path class="st0" d="M431.44,696.19c-2.23,0-4.11-1.66-4.39-3.87l-0.54-4.32c-10.41,6.64-23.02,8.19-32.55,8.19
			c-17.31-0.07-30.36-2.9-39.9-8.64c-11.8-7.1-17.75-18.47-17.69-33.79l0-5.66c-0.05-11.68,3.45-21.16,10.39-28.14
			c9.51-9.57,24.95-14.24,47.2-14.28c15.48,0,28,2.41,37.2,7.17c11.35,5.86,18.02,15.27,19.83,27.96c0.18,1.24-0.18,2.5-0.99,3.46
			c0.64,0.77,1.03,1.76,1.03,2.84v44.66c0,2.44-1.98,4.42-4.42,4.42H431.44z M393.99,639.19c-15.53,0.22-18.52,4.09-18.43,10.7
			c0,0.02,0,2.01,0,2.03c-0.08,6.11,2.28,9.72,14.24,10.53c-0.31-0.61-0.49-1.29-0.49-2.02v-13.32c0-2.44,1.98-4.42,4.42-4.42h15.81
			c-1.18-1.02-2.69-1.76-4.57-2.25C401.76,639.61,398.06,639.19,393.99,639.19z"/>
		<path class="st0" d="M393.73,647.11h52.88v44.66h-15.18l-1.51-12.11c-9.04,8.92-22.76,12.11-35.97,12.11
			c-29.31-0.12-53.29-8.57-53.17-38v-5.68c-0.12-29.48,23.86-37.94,53.17-38c26.99,0,49.23,7.36,52.65,31.34h-32.26
			c-1.91-2.61-4.69-4.34-8.28-5.27c-3.59-0.93-7.65-1.39-12.11-1.39c-12.45,0.17-22.99,2.49-22.82,15.18v1.91
			c-0.17,12.8,10.37,15,22.82,15.18c11.99,0,19.64-0.7,24.21-6.6h-24.44V647.11z"/>
		<path class="st0" d="M466.07,694.28c-2.44,0-4.42-1.98-4.42-4.42v-77.85c0-2.44,1.98-4.42,4.42-4.42h30.35
			c2.44,0,4.42,1.98,4.42,4.42v77.85c0,2.44-1.98,4.42-4.42,4.42H466.07z"/>
		<path class="st0" d="M496.42,612.01v77.85h-30.35v-77.85H496.42z"/>
		<path class="st0" d="M548.51,694.39c-2.44,0-4.42-1.98-4.42-4.42v-48.75h-31.67c-2.44,0-4.42-1.98-4.42-4.42v-24.67
			c0-2.44,1.98-4.42,4.42-4.42h102.52c2.44,0,4.42,1.98,4.42,4.42v24.67c0,2.44-1.98,4.42-4.42,4.42h-31.67v48.75
			c0,2.44-1.98,4.42-4.42,4.42H548.51z"/>
		<path class="st0" d="M548.51,689.97V636.8h-36.09v-24.67h102.52v24.67h-36.09v53.17H548.51z"/>
		<path class="st0" d="M696.74,694.39c-1.72,0-3.29-1-4.01-2.57l-4.96-10.75h-33.32l-4.96,10.75c-0.72,1.57-2.29,2.57-4.01,2.57
			H611.3c-1.55,0-2.99-0.82-3.79-2.15c-0.8-1.33-0.84-2.99-0.1-4.36l41.76-77.85c0.77-1.43,2.27-2.33,3.89-2.33h36.09
			c1.63,0,3.12,0.9,3.89,2.33l41.76,77.85c0.73,1.37,0.7,3.02-0.1,4.36c-0.8,1.33-2.24,2.15-3.79,2.15H696.74z M674.87,653.23
			l-3.75-8.09l-3.77,8.09H674.87z"/>
		<path class="st0" d="M653.07,612.12h36.09l41.76,77.85h-34.17l-6.14-13.32h-38.98l-6.14,13.32H611.3L653.07,612.12z
			 M660.42,657.65h21.37l-10.66-22.99L660.42,657.65z"/>
		<path class="st0" d="M743.85,694.28c-2.44,0-4.42-1.98-4.42-4.42v-77.85c0-2.44,1.98-4.42,4.42-4.42h30.35
			c2.44,0,4.42,1.98,4.42,4.42v48.75h56.34c2.44,0,4.42,1.98,4.42,4.42v24.67c0,2.44-1.98,4.42-4.42,4.42H743.85z"/>
		<path class="st0" d="M774.2,612.01v53.17h60.76v24.67h-91.11v-77.85H774.2z"/>
		<path class="st1" d="M282.65,641.57c-3.8-16.85-17.95-29.69-36.06-29.45h-69.28v77.85h69.28c21.37,0.29,37.25-17.78,37.07-38.92
			C283.69,647.8,283.34,644.62,282.65,641.57z M240.91,665.3h-33.24v-28.5h33.24c5.35,0,9.12,2.93,10.99,7.28
			c0.89,2.06,1.35,4.44,1.35,6.96C253.25,658.87,248.79,665.3,240.91,665.3z"/>
		<path class="st1" d="M295.61,612.01v77.84h30.35v-77.84H295.61z"/>
		<path class="st1" d="M393.73,660.43h24.45c-4.58,5.91-12.22,6.6-24.22,6.6c-12.45-0.17-22.99-2.37-22.82-15.18v-1.91
			c-0.09-6.37,2.53-10.13,6.73-12.31c4.16-2.16,9.89-2.78,16.09-2.87c4.46,0,8.52,0.46,12.11,1.39c1.06,0.27,2.06,0.62,2.97,1.04
			c2.19,0.99,3.96,2.4,5.31,4.23h32.26c-0.22-1.52-0.51-2.97-0.87-4.37c-5.39-20.52-26.5-26.97-51.78-26.97
			c-25.88,0.05-47.61,6.65-52.25,28.5c-0.62,2.89-0.93,6.05-0.92,9.49v5.67c-0.11,29.43,23.86,37.88,53.17,38
			c13.21,0,26.93-3.19,35.97-12.11l1.5,12.11h15.18v-44.66h-52.89V660.43z"/>
		<path class="st1" d="M466.07,612.01v77.84h30.35v-77.84H466.07z"/>
		<path class="st1" d="M512.42,612.12v24.68h36.09v53.17h30.35V636.8h36.09v-24.68H512.42z"/>
		<path class="st1" d="M706.2,643.91l-17.06-31.79h-36.09l-15.54,28.97l-26.22,48.88h34.17l6.14-13.32h38.98l6.14,13.32h34.18
			L706.2,643.91z M660.42,657.65l7.18-15.4l3.54-7.6l3.66,7.9l7,15.1H660.42z"/>
		<path class="st1" d="M774.21,665.18v-53.17h-30.35v77.84h91.11v-24.67H774.21z"/>
		<path class="st2" d="M247.09,690.57c-0.17,0-0.34,0-0.5,0h-69.86v-79.04h69.87c9.82-0.13,19.09,3.61,26.05,10.53
			c7.48,7.44,11.71,18,11.62,28.99c0.09,10.95-4.16,21.52-11.65,28.97C265.76,686.84,256.71,690.57,247.09,690.57z M177.91,689.38
			h68.68c9.49,0.15,18.44-3.49,25.17-10.2c7.27-7.23,11.39-17.48,11.3-28.13c0.09-10.68-4.02-20.94-11.27-28.15
			c-6.73-6.7-15.68-10.3-25.2-10.18h-68.69V689.38z M240.92,665.89h-33.84v-29.69h33.84c7.74,0,12.93,5.96,12.93,14.84
			C253.85,659.79,248.53,665.89,240.92,665.89z M208.27,664.7h32.65c8.11,0,11.74-6.86,11.74-13.65s-3.63-13.65-11.74-13.65h-32.65
			V664.7z"/>
		<path class="st2" d="M326.55,690.45h-31.54v-79.04h31.54V690.45z M296.2,689.26h29.16V612.6H296.2V689.26z"/>
		<path class="st2" d="M447.21,692.36h-16.3l-1.42-11.46c-10.25,9.44-24.9,11.46-35.53,11.46c-16.36-0.06-29.12-2.79-37.93-8.09
			c-10.57-6.36-15.89-16.62-15.84-30.5v-5.67c-0.04-10.65,3.08-19.21,9.27-25.44c8.76-8.81,23.31-13.11,44.49-13.15
			c32.32,0,50.23,10.71,53.24,31.85l0.1,0.68h-33.25l-0.18-0.24c-1.8-2.45-4.47-4.15-7.95-5.05c-3.53-0.91-7.55-1.37-11.96-1.37
			c-11.64,0.16-22.4,2.04-22.23,14.57v1.92c-0.17,12.54,10.59,14.42,22.23,14.58c11.94,0,18.67-0.84,22.92-5.41h-23.75v-14.51h54.07
			V692.36z M431.96,691.17h14.06V647.7h-51.69v12.13h25.06l-0.74,0.96c-4.91,6.34-13.33,6.83-24.68,6.83
			c-12.27-0.17-23.6-2.2-23.42-15.78v-1.9c-0.19-13.61,11.73-15.61,23.41-15.77c4.52,0,8.64,0.47,12.26,1.41
			c3.64,0.94,6.47,2.7,8.43,5.25h31.27c-1.7-10.65-7.44-18.57-17.07-23.54c-8.49-4.39-20.23-6.61-34.89-6.61
			c-20.56,0.04-35.25,4.35-43.65,12.8c-5.96,6-8.97,14.28-8.93,24.6v5.68c-0.1,25.03,17.1,37.26,52.58,37.4
			c10.7,0,25.56-2.07,35.55-11.93l0.86-0.85L431.96,691.17z"/>
		<path class="st2" d="M497.01,690.45h-31.54v-79.04h31.54V690.45z M466.66,689.26h29.16V612.6h-29.16V689.26z"/>
		<path class="st2" d="M579.45,690.57h-31.54v-53.17h-36.09v-25.86h103.71v25.86h-36.08V690.57z M549.1,689.38h29.16v-53.17h36.08
			v-23.49H513.01v23.49h36.09V689.38z"/>
		<path class="st2" d="M731.91,690.57h-35.55l-6.14-13.32H652l-6.14,13.32h-35.55l42.4-79.04h36.8l0.17,0.31L731.91,690.57z
			 M697.12,689.38h32.8l-41.12-76.66h-35.37l-41.12,76.66h32.8l6.14-13.32h39.74L697.12,689.38z M682.73,658.25h-23.24l11.65-25
			L682.73,658.25z M661.35,657.06h19.51l-9.73-20.99L661.35,657.06z"/>
		<path class="st2" d="M835.56,690.45h-92.3v-79.04h31.54v53.17h60.76V690.45z M744.45,689.26h89.92v-23.49h-60.76V612.6h-29.16
			V689.26z"/>
	</g>
	<g>
		<path class="st0" d="M564.99,469.72c-0.98,0-1.77-0.79-1.77-1.77v-17.49c0-0.98,0.79-1.77,1.77-1.77l16.92,0
			c2.19,0,4.34,0.91,5.91,2.5c1.57,1.6,2.43,3.68,2.4,5.88c0.02,2.19-0.83,4.28-2.41,5.88c-1.56,1.59-3.71,2.5-5.88,2.5l-8.36,0v2.5
			c0,0.98-0.79,1.77-1.77,1.77H564.99z"/>
		<path class="st0" d="M581.84,450.46c3.6-0.04,6.66,2.99,6.61,6.61c0.05,3.6-3.01,6.66-6.61,6.61h-10.03v4.27h-6.82v-17.49H581.84z
			 M580.14,458.56c0.4,0,0.75-0.14,1.04-0.43c0.3-0.3,0.44-0.65,0.44-1.05c0-0.42-0.14-0.77-0.44-1.05
			c-0.29-0.3-0.64-0.44-1.04-0.44h-8.33v2.98H580.14z"/>
		<path class="st0" d="M608.66,469.71c-0.55,0-1.07-0.25-1.4-0.69l-2.76-3.58h-3.45v2.5c0,0.98-0.79,1.77-1.77,1.77h-6.82
			c-0.98,0-1.77-0.79-1.77-1.77v-17.49c0-0.98,0.79-1.77,1.77-1.77l16.92,0c2.19,0,4.34,0.91,5.91,2.5c1.58,1.6,2.43,3.7,2.4,5.9
			c0,1.64-0.45,3.17-1.35,4.53c-0.47,0.71-1.02,1.34-1.65,1.86l2.63,3.38c0.41,0.53,0.49,1.26,0.19,1.86
			c-0.3,0.61-0.91,0.99-1.59,0.99H608.66z"/>
		<path class="st0" d="M609.31,450.45c3.6-0.04,6.66,2.99,6.61,6.61c0,1.31-0.35,2.51-1.05,3.58c-0.69,1.05-1.61,1.86-2.76,2.39
			l3.81,4.91h-7.26l-3.29-4.27h-6.09v4.27h-6.82v-17.49H609.31z M599.28,455.56v2.98h8.32c0.42,0,0.77-0.14,1.05-0.43
			c0.3-0.3,0.44-0.65,0.44-1.05c0-0.83-0.66-1.5-1.5-1.5H599.28z"/>
		<path class="st0" d="M631.62,470.12c-5.21-0.01-8.86-1.14-11.15-3.44c-1.71-1.72-2.57-4.03-2.56-6.87v-1.27
			c-0.01-2.84,0.85-5.15,2.56-6.87c2.29-2.3,5.94-3.43,11.15-3.44c11.33,0,13.7,5.6,13.7,10.3v1.28c0.01,2.83-0.85,5.14-2.56,6.86
			C640.48,468.99,636.83,470.11,631.62,470.12C631.63,470.12,631.63,470.12,631.62,470.12
			C631.62,470.12,631.62,470.12,631.62,470.12z M631.63,457.32c-3.38,0.05-3.37,0.85-3.36,1.62l0,0.45c-0.01,0.8-0.02,1.6,3.36,1.65
			c3.37-0.05,3.36-0.85,3.35-1.63l0-0.45C634.98,458.17,634.99,457.37,631.63,457.32z"/>
		<path class="st0" d="M643.56,458.54v1.28c0.03,6.61-5.36,8.52-11.93,8.54c-6.58-0.01-11.97-1.93-11.95-8.54v-1.28
			c-0.03-6.62,5.36-8.52,11.95-8.54C638.21,450.01,643.56,451.93,643.56,458.54z M636.74,458.96c0.04-2.85-2.33-3.37-5.11-3.41
			c-2.8,0.04-5.17,0.56-5.13,3.41v0.43c-0.04,2.86,2.33,3.38,5.13,3.42c2.78-0.04,5.15-0.56,5.11-3.42V458.96z"/>
		<path class="st0" d="M663.27,469.72l-15.54,0c-0.98,0-1.77-0.79-1.77-1.77v-17.49c0-0.98,0.79-1.77,1.77-1.77l15.68,0
			c2.62,0,5.09,1.03,6.94,2.89c1.96,1.97,3.07,4.76,3.04,7.64c0.02,2.84-1.09,5.63-3.05,7.61c-1.85,1.87-4.31,2.89-6.93,2.89
			L663.27,469.72z M662.02,460.64c0.91,0,1-1,1-1.43s-0.1-1.43-1-1.43h-5.7v2.87H662.02z"/>
		<path class="st0" d="M663.3,450.46c4.8-0.07,8.37,3.97,8.33,8.74c0.04,4.75-3.53,8.81-8.33,8.74h-15.56v-17.49H663.3z
			 M662.02,456.01h-7.47v6.4h7.47c1.77,0,2.77-1.44,2.77-3.2C664.79,457.44,663.79,456.01,662.02,456.01z"/>
		<path class="st0" d="M687.64,470.12c-5.21-0.01-8.86-1.14-11.15-3.44c-1.71-1.72-2.57-4.02-2.56-6.85v-9.39
			c0-0.98,0.79-1.77,1.77-1.77h6.82c0.98,0,1.77,0.79,1.77,1.77v8.97c-0.01,0.83-0.01,1.59,3.36,1.64c3.37-0.05,3.36-0.81,3.35-1.62
			l0-8.99c0-0.98,0.79-1.77,1.77-1.77h6.83c0.98,0,1.77,0.79,1.77,1.77v9.4c0.01,2.82-0.85,5.13-2.56,6.85
			C696.51,468.99,692.86,470.11,687.64,470.12C687.65,470.12,687.64,470.12,687.64,470.12
			C687.64,470.12,687.64,470.12,687.64,470.12z"/>
		<path class="st0" d="M692.76,450.44h6.83v9.4c0.03,6.61-5.39,8.51-11.95,8.52c-6.56-0.01-11.97-1.91-11.95-8.52v-9.4h6.82v8.97
			c-0.03,2.88,2.33,3.37,5.13,3.41c2.78-0.04,5.15-0.53,5.11-3.41V450.44z"/>
		<path class="st0" d="M740.31,469.72c-0.98,0-1.77-0.79-1.77-1.77v-10.18h-6.34c-0.98,0-1.77-0.79-1.77-1.77v-5.54
			c0-0.98,0.79-1.77,1.77-1.77h23.03c0.98,0,1.77,0.79,1.77,1.77v5.54c0,0.98-0.79,1.77-1.77,1.77h-6.34v10.18
			c0,0.98-0.79,1.77-1.77,1.77H740.31z"/>
		<path class="st0" d="M740.31,467.95v-11.95h-8.11v-5.54h23.03v5.54h-8.11v11.95H740.31z"/>
		<path class="st0" d="M770.86,470.12c-5.21-0.01-8.86-1.14-11.15-3.44c-1.71-1.72-2.57-4.03-2.56-6.87v-1.27
			c-0.01-2.84,0.85-5.15,2.56-6.87c2.29-2.3,5.94-3.43,11.15-3.44c11.33,0,13.7,5.6,13.7,10.3v1.28c0.01,2.83-0.85,5.14-2.56,6.86
			C779.72,468.99,776.08,470.11,770.86,470.12C770.87,470.12,770.87,470.12,770.86,470.12
			C770.87,470.12,770.87,470.12,770.86,470.12z M770.87,457.32c-3.38,0.05-3.37,0.85-3.36,1.62l0,0.45c-0.01,0.8-0.02,1.6,3.36,1.65
			c3.37-0.05,3.36-0.85,3.35-1.63l0-0.45C774.23,458.17,774.24,457.37,770.87,457.32z"/>
		<path class="st0" d="M782.8,458.54v1.28c0.03,6.61-5.36,8.52-11.93,8.54c-6.58-0.01-11.97-1.93-11.95-8.54v-1.28
			c-0.03-6.62,5.36-8.52,11.95-8.54C777.45,450.01,782.8,451.93,782.8,458.54z M775.98,458.96c0.04-2.85-2.33-3.37-5.11-3.41
			c-2.8,0.04-5.17,0.56-5.13,3.41v0.43c-0.04,2.86,2.33,3.38,5.13,3.42c2.78-0.04,5.15-0.56,5.11-3.42V458.96z"/>
		<path class="st0" d="M803.18,469.71c-0.55,0-1.07-0.25-1.4-0.69l-2.76-3.58h-3.45v2.5c0,0.98-0.79,1.77-1.77,1.77h-6.82
			c-0.98,0-1.77-0.79-1.77-1.77v-17.49c0-0.98,0.79-1.77,1.77-1.77l16.92,0c2.19,0,4.34,0.91,5.91,2.5c1.58,1.6,2.43,3.7,2.4,5.9
			c0,1.64-0.45,3.17-1.35,4.53c-0.47,0.71-1.02,1.34-1.65,1.86l2.63,3.38c0.41,0.53,0.49,1.26,0.19,1.86
			c-0.3,0.61-0.91,0.99-1.59,0.99H803.18z"/>
		<path class="st0" d="M803.83,450.45c3.6-0.04,6.66,2.99,6.61,6.61c0,1.31-0.35,2.51-1.05,3.58c-0.69,1.05-1.61,1.86-2.76,2.39
			l3.81,4.91h-7.26l-3.29-4.27h-6.09v4.27h-6.82v-17.49H803.83z M793.8,455.56v2.98h8.32c0.42,0,0.77-0.14,1.05-0.43
			c0.3-0.3,0.44-0.65,0.44-1.05c0-0.83-0.66-1.5-1.5-1.5H793.8z"/>
		<path class="st0" d="M833.83,469.72c-0.69,0-1.32-0.4-1.61-1.03l-0.91-1.97h-6.49l-0.91,1.97c-0.29,0.63-0.92,1.03-1.61,1.03
			h-7.68c-0.62,0-1.2-0.33-1.52-0.86c-0.32-0.53-0.33-1.2-0.04-1.74l9.38-17.49c0.31-0.57,0.91-0.93,1.56-0.93h8.11
			c0.65,0,1.25,0.36,1.56,0.93l9.38,17.49c0.29,0.55,0.28,1.21-0.04,1.74c-0.32,0.53-0.9,0.86-1.52,0.86H833.83z"/>
		<path class="st0" d="M824.02,450.46h8.11l9.38,17.49h-7.68l-1.38-2.99h-8.76l-1.38,2.99h-7.68L824.02,450.46z M825.67,460.69h4.8
			l-2.39-5.17L825.67,460.69z"/>
		<path class="st0" d="M716.11,470.6c-5.33-0.01-9.07-1.16-11.41-3.52c-1.75-1.76-2.62-4.12-2.61-7.01v-1.3
			c-0.02-4.77,2.4-10.48,14.02-10.53c10.99,0.02,13.67,5.19,13.99,9.52c0.04,0.49-0.13,0.97-0.47,1.33
			c-0.12,0.13-0.26,0.24-0.42,0.33c0.15,0.09,0.3,0.2,0.42,0.33c0.33,0.36,0.5,0.84,0.47,1.33
			C729.78,465.43,727.09,470.6,716.11,470.6C716.11,470.6,716.11,470.6,716.11,470.6z M716.11,457.48c-3.5,0.05-3.49,0.89-3.48,1.71
			l0,0.46c-0.01,0.84-0.02,1.68,3.5,1.73c2.99,0,3.27-0.77,3.36-1.03c0.15-0.4,0.43-0.73,0.79-0.93c-0.35-0.2-0.63-0.52-0.78-0.92
			C719.4,458.22,719.12,457.48,716.11,457.48z"/>
		<path class="st0" d="M728.33,460.96c-0.44,6.06-5.76,7.88-12.22,7.88c-6.73-0.01-12.28-1.96-12.26-8.76v-1.31
			c-0.03-6.78,5.53-8.73,12.26-8.76c6.46,0.01,11.78,1.83,12.22,7.88h-7.17c-0.65-1.76-2.64-2.18-5.05-2.18
			c-2.86,0.04-5.29,0.55-5.25,3.5v0.44c-0.04,2.92,2.39,3.46,5.25,3.5c2.4,0,4.41-0.43,5.05-2.19H728.33z"/>
		<path class="st1" d="M581.84,450.46h-16.85v17.49h6.82v-4.26h10.03c3.6,0.05,6.66-3.01,6.61-6.61
			C588.5,453.46,585.45,450.42,581.84,450.46z M581.18,458.13c-0.29,0.29-0.64,0.43-1.04,0.43h-8.33v-2.99h8.33
			c0.4,0,0.76,0.15,1.04,0.45c0.3,0.29,0.45,0.64,0.45,1.05C581.62,457.48,581.48,457.83,581.18,458.13z"/>
		<path class="st1" d="M614.86,460.64c0.71-1.07,1.06-2.27,1.06-3.58c0.05-3.62-3.01-6.65-6.61-6.61h-16.85v17.49h6.82v-4.27h6.09
			l3.29,4.27h7.26l-3.81-4.91C613.25,462.5,614.17,461.69,614.86,460.64z M608.64,458.11c-0.29,0.29-0.64,0.43-1.05,0.43h-8.31
			v-2.98h8.31c0.83,0,1.5,0.67,1.5,1.5C609.09,457.47,608.95,457.82,608.64,458.11z"/>
		<path class="st1" d="M631.63,450.01c-6.59,0.01-11.98,1.91-11.95,8.53v1.28c-0.03,6.61,5.36,8.52,11.95,8.53
			c6.57-0.01,11.96-1.93,11.93-8.53v-1.28C643.56,451.94,638.21,450.01,631.63,450.01z M636.74,459.39
			c0.04,2.86-2.33,3.38-5.11,3.42c-2.8-0.04-5.17-0.56-5.13-3.42v-0.43c-0.04-2.85,2.33-3.37,5.13-3.41
			c2.78,0.04,5.15,0.56,5.11,3.41V459.39z"/>
		<path class="st1" d="M663.3,450.46h-15.56v17.49h15.56c4.81,0.07,8.37-3.99,8.33-8.74C671.66,454.43,668.1,450.4,663.3,450.46z
			 M662.02,462.41h-7.47v-6.4h7.47c1.77,0,2.77,1.43,2.77,3.2C664.79,460.96,663.79,462.41,662.02,462.41z"/>
		<path class="st1" d="M692.76,450.44v8.97c0.04,2.87-2.33,3.37-5.11,3.41c-2.8-0.04-5.15-0.54-5.13-3.41v-8.97h-6.82v9.4
			c-0.02,6.61,5.39,8.51,11.95,8.52c6.56-0.01,11.97-1.91,11.95-8.52v-9.4H692.76z"/>
		<path class="st1" d="M732.2,450.46v5.55h8.11v11.94h6.82v-11.94h8.11v-5.55H732.2z"/>
		<path class="st1" d="M770.87,450.01c-6.58,0.01-11.97,1.91-11.95,8.53v1.28c-0.02,6.61,5.36,8.52,11.95,8.53
			c6.57-0.01,11.96-1.93,11.94-8.53v-1.28C782.8,451.94,777.45,450.01,770.87,450.01z M775.98,459.39c0.04,2.86-2.33,3.38-5.11,3.42
			c-2.8-0.04-5.17-0.56-5.13-3.42v-0.43c-0.04-2.85,2.33-3.37,5.13-3.41c2.78,0.04,5.15,0.56,5.11,3.41V459.39z"/>
		<path class="st1" d="M809.39,460.64c0.7-1.07,1.05-2.27,1.05-3.58c0.05-3.62-3-6.65-6.61-6.61h-16.85v17.49h6.82v-4.27h6.09
			l3.29,4.27h7.26l-3.81-4.91C807.77,462.5,808.7,461.69,809.39,460.64z M803.17,458.11c-0.29,0.29-0.64,0.43-1.05,0.43h-8.32v-2.98
			h8.32c0.83,0,1.49,0.67,1.49,1.5C803.61,457.47,803.46,457.82,803.17,458.11z"/>
		<path class="st1" d="M832.13,450.46h-8.11l-9.38,17.49h7.68l1.38-2.99h8.76l1.37,2.99h7.68L832.13,450.46z M825.67,460.69
			l2.41-5.16l2.4,5.16H825.67z"/>
		<path class="st1" d="M716.11,463.15c-2.86-0.04-5.29-0.57-5.25-3.5v-0.44c-0.04-2.95,2.38-3.46,5.25-3.5
			c2.4,0,4.39,0.41,5.05,2.18h7.17c-0.44-6.05-5.75-7.87-12.21-7.88c-6.73,0.02-12.29,1.97-12.26,8.76v1.31
			c-0.03,6.8,5.52,8.75,12.26,8.76c6.46,0,11.77-1.82,12.21-7.88h-7.17C720.52,462.72,718.51,463.15,716.11,463.15z"/>
		<path class="st2" d="M572.11,468.25h-7.41v-18.08h17.15c1.81-0.02,3.6,0.72,4.9,2.04c1.32,1.32,2.03,3.06,2.01,4.88
			c0.03,1.79-0.71,3.57-2.02,4.88c-1.31,1.31-3.11,2.03-4.89,2.02h-9.73V468.25z M565.29,467.66h6.22v-4.27h10.33
			c1.65,0.03,3.27-0.65,4.47-1.85c1.2-1.2,1.87-2.82,1.85-4.46c0.02-1.67-0.63-3.25-1.83-4.46c-1.2-1.2-2.81-1.88-4.48-1.86h-16.56
			V467.66z M580.14,458.85h-8.63v-3.57h8.63c0.49,0,0.92,0.18,1.26,0.53c0.35,0.33,0.53,0.76,0.53,1.26c0,0.49-0.18,0.91-0.53,1.26
			C581.05,458.68,580.62,458.85,580.14,458.85z M572.11,458.26h8.03c0.33,0,0.6-0.11,0.83-0.34c0.24-0.24,0.36-0.51,0.36-0.84
			c0-0.34-0.11-0.61-0.35-0.84c-0.23-0.25-0.51-0.36-0.84-0.36h-8.03V458.26z"/>
		<path class="st2" d="M616.53,468.24h-8.02l-3.29-4.27h-5.65v4.27h-7.41v-18.08h17.15c1.82-0.01,3.6,0.72,4.9,2.04
			c1.32,1.32,2.03,3.06,2.01,4.88c0,1.37-0.37,2.63-1.1,3.74c-0.65,1-1.51,1.78-2.55,2.34L616.53,468.24z M608.81,467.64h6.51
			l-3.67-4.72l0.34-0.16c1.09-0.51,1.97-1.28,2.64-2.29c0.67-1.01,1.01-2.16,1.01-3.42c0.02-1.66-0.63-3.24-1.83-4.45
			c-1.2-1.2-2.82-1.89-4.48-1.86h-16.56v16.89h6.22v-4.27h6.53L608.81,467.64z M607.59,458.84h-8.61v-3.57h8.61
			c0.99,0,1.79,0.8,1.79,1.79c0,0.49-0.18,0.91-0.53,1.26C608.51,458.67,608.09,458.84,607.59,458.84z M599.57,458.25h8.02
			c0.34,0,0.61-0.11,0.84-0.34c0.24-0.24,0.36-0.52,0.36-0.84c0-0.67-0.53-1.2-1.2-1.2h-8.02V458.25z"/>
		<path class="st2" d="M631.63,468.65c-4.74-0.01-8.14-1.02-10.11-3.01c-1.42-1.43-2.14-3.39-2.13-5.83v-1.27
			c-0.01-2.44,0.71-4.4,2.13-5.83c2-2.01,5.31-2.99,10.11-3c8.12,0,12.23,2.97,12.23,8.83v1.28c0.01,2.43-0.71,4.39-2.13,5.83
			C639.75,467.63,636.35,468.64,631.63,468.65z M631.63,450.3c-4.57,0.01-7.83,0.96-9.69,2.83c-1.31,1.32-1.97,3.14-1.96,5.41v1.28
			c-0.01,2.27,0.65,4.09,1.96,5.41c1.86,1.87,5.12,2.82,9.69,2.83c4.56-0.01,7.82-0.96,9.68-2.83c1.31-1.32,1.97-3.14,1.96-5.41
			v-1.28C643.26,453,639.46,450.3,631.63,450.3z M631.63,463.11c-2.71-0.04-5.47-0.51-5.43-3.72v-0.43
			c-0.04-3.2,2.72-3.67,5.42-3.71c2.71,0.04,5.46,0.51,5.42,3.71v0.43C637.08,462.6,634.33,463.07,631.63,463.11z M631.62,455.85
			c-3.45,0.05-4.86,0.95-4.83,3.11v0.43c-0.03,2.54,1.91,3.08,4.83,3.13c3.45-0.05,4.84-0.95,4.81-3.12v-0.44
			C636.47,456.8,635.08,455.9,631.62,455.85z"/>
		<path class="st2" d="M663.41,468.25c-0.04,0-0.08,0-0.12,0h-15.86v-18.08h15.86c2.24-0.03,4.37,0.83,5.97,2.41
			c1.71,1.7,2.68,4.12,2.66,6.63c0.02,2.5-0.95,4.92-2.67,6.62C667.69,467.4,665.62,468.25,663.41,468.25z M648.03,467.66h15.27
			c2.1,0.03,4.06-0.77,5.54-2.24c1.6-1.59,2.51-3.85,2.49-6.2c0.02-2.36-0.89-4.62-2.48-6.21c-1.48-1.47-3.45-2.27-5.54-2.24h-15.27
			V467.66z M662.02,462.71h-7.77v-7h7.77c1.81,0,3.07,1.44,3.07,3.5C665.09,461.27,663.83,462.71,662.02,462.71z M654.85,462.11
			h7.17c1.71,0,2.47-1.46,2.47-2.9c0-1.45-0.77-2.9-2.47-2.9h-7.17V462.11z"/>
		<path class="st2" d="M687.64,468.65c-4.74-0.01-8.14-1.02-10.12-3.01c-1.42-1.43-2.14-3.39-2.13-5.81v-9.69h7.41v9.26
			c-0.02,2.53,1.92,3.07,4.83,3.11c2.91-0.04,4.85-0.58,4.81-3.11v-9.27h7.43v9.69c0.01,2.43-0.71,4.38-2.13,5.81
			C695.78,467.63,692.38,468.64,687.64,468.65z M675.99,450.73v9.1c-0.01,2.26,0.65,4.08,1.96,5.39c1.86,1.87,5.12,2.83,9.69,2.83
			c4.57-0.01,7.83-0.96,9.69-2.83c1.31-1.31,1.96-3.13,1.96-5.39v-9.1h-6.24v8.67c0.04,3.2-2.71,3.67-5.41,3.71
			c-2.7-0.04-5.46-0.51-5.43-3.71v-8.67H675.99z"/>
		<path class="st2" d="M747.42,468.25h-7.41V456.3h-8.11v-6.14h23.63v6.14h-8.11V468.25z M740.6,467.66h6.22v-11.95h8.11v-4.95
			H732.5v4.95h8.11V467.66z"/>
		<path class="st2" d="M770.87,468.65c-4.74-0.01-8.14-1.02-10.11-3.01c-1.42-1.43-2.14-3.39-2.13-5.83v-1.27
			c-0.01-2.44,0.71-4.4,2.13-5.83c2-2.01,5.31-2.99,10.11-3c8.12,0,12.23,2.97,12.23,8.83v1.28c0.01,2.43-0.71,4.39-2.13,5.83
			C778.99,467.63,775.6,468.64,770.87,468.65z M770.87,450.3c-4.57,0.01-7.83,0.96-9.69,2.83c-1.31,1.32-1.97,3.14-1.96,5.41v1.28
			c-0.01,2.27,0.65,4.09,1.96,5.41c1.86,1.87,5.12,2.82,9.69,2.83c4.56-0.01,7.82-0.96,9.68-2.83c1.31-1.32,1.97-3.14,1.96-5.41
			v-1.28C782.5,453,778.7,450.3,770.87,450.3z M770.87,463.11c-2.71-0.04-5.47-0.51-5.43-3.72v-0.43c-0.04-3.2,2.72-3.67,5.42-3.71
			c2.71,0.04,5.46,0.51,5.42,3.71v0.43C776.32,462.6,773.57,463.07,770.87,463.11z M770.86,455.85c-3.45,0.05-4.86,0.95-4.83,3.11
			v0.43c-0.03,2.54,1.91,3.08,4.83,3.13c3.45-0.05,4.84-0.95,4.81-3.12v-0.44C775.71,456.8,774.32,455.9,770.86,455.85z"/>
		<path class="st2" d="M811.05,468.24h-8.02l-3.29-4.27h-5.65v4.27h-7.41v-18.08h17.15c1.8-0.01,3.6,0.72,4.9,2.04
			c1.32,1.32,2.03,3.06,2.01,4.88c0,1.37-0.37,2.63-1.1,3.74c-0.65,1-1.51,1.78-2.55,2.34L811.05,468.24z M803.32,467.64h6.51
			l-3.67-4.72l0.34-0.16c1.09-0.51,1.97-1.28,2.64-2.29c0.67-1.01,1.01-2.16,1.01-3.42c0.02-1.66-0.63-3.24-1.83-4.45
			c-1.2-1.2-2.82-1.89-4.48-1.86h-16.56v16.89h6.22v-4.27h6.53L803.32,467.64z M802.11,458.84h-8.61v-3.57h8.61
			c0.99,0,1.79,0.8,1.79,1.79c0,0.49-0.18,0.91-0.53,1.26C803.03,458.67,802.61,458.84,802.11,458.84z M794.09,458.25h8.02
			c0.34,0,0.61-0.11,0.84-0.34c0.24-0.24,0.36-0.52,0.36-0.84c0-0.67-0.53-1.2-1.2-1.2h-8.02V458.25z"/>
		<path class="st2" d="M842.01,468.25h-8.37l-1.38-2.99h-8.38l-1.38,2.99h-8.37l9.7-18.08h8.46L842.01,468.25z M834.02,467.66h6.99
			l-9.06-16.89h-7.75l-9.06,16.89h6.99l1.38-2.99h9.14L834.02,467.66z M830.94,460.99h-5.73l2.88-6.17L830.94,460.99z
			 M826.14,460.39h3.87l-1.93-4.16L826.14,460.39z"/>
		<path class="st2" d="M716.11,469.13c-4.86-0.01-8.34-1.05-10.37-3.09c-1.46-1.47-2.2-3.48-2.19-5.97v-1.31
			c-0.02-5.98,4.2-9.02,12.55-9.06c7.91,0.02,12.12,2.76,12.52,8.15l0.02,0.32h-7.7l-0.07-0.19c-0.51-1.37-1.98-1.98-4.77-1.98
			c-3,0.04-4.99,0.6-4.95,3.2v0.44c-0.03,2.23,1.4,3.15,4.95,3.2c2.79,0,4.26-0.62,4.76-1.99l0.07-0.2h7.7l-0.02,0.32
			C728.23,466.39,724.02,469.13,716.11,469.13z M716.11,450.3c-8.07,0.03-11.98,2.8-11.96,8.46v1.31c-0.01,2.33,0.67,4.2,2.01,5.55
			c1.91,1.92,5.26,2.9,9.95,2.91c7.49,0,11.38-2.38,11.89-7.28h-6.64c-0.85,1.94-3.24,2.19-5.25,2.19c-2.77-0.04-5.59-0.52-5.54-3.8
			v-0.44c-0.04-3.28,2.78-3.76,5.54-3.8c2.01,0,4.39,0.25,5.25,2.18H728C727.49,452.7,723.6,450.32,716.11,450.3z"/>
	</g>
	<g>
		<path class="st0" d="M262.49,495.44h-37.27c-1.11,0-2.16,0.52-2.83,1.4l-27.05,35.36l-0.68-0.9
			c-5.63-7.38-11.27-14.76-16.91-22.15c-1.16-1.53-2.31-3.06-3.45-4.59c-8.71-11.71-17.71-23.81-34.18-27.25
			c-3.65-0.76-7.41-1.15-11.16-1.15c-8.65,0-16.5,2.03-22.71,5.86c-4.26,2.63-7.19,6.11-9.27,9.94c-0.06-0.36-0.18-0.7-0.35-1.02
			c4.49-4.14,7.57-9.76,8.38-16.05l1.69-13.14c1.67-0.11,3.08-1.39,3.3-3.11l2.1-16.29c0.12-0.94-0.14-1.9-0.72-2.65
			c-0.44-0.56-1.03-0.97-1.69-1.19l3.01-23.36c0.9-6.96-1-13.87-5.34-19.45c-4.43-5.69-10.84-9.31-18.05-10.19l-12.3-1.49
			c-1.1-0.13-2.21-0.2-3.32-0.2c-13.57,0-25.09,10.01-26.8,23.28l-2.32,18.04c0,0-0.01,0-0.01,0c-1.77,0-3.3,1.31-3.53,3.11
			l-2.1,16.29c-0.12,0.94,0.14,1.9,0.72,2.65c0.49,0.63,1.16,1.07,1.92,1.26l-2.37,18.39c-0.8,6.21,0.63,12.37,4.02,17.59
			c-0.58,0.66-0.92,1.52-0.9,2.44l1.38,69.65c-0.45,0.56-0.73,1.25-0.79,1.97l-0.02,0.29c-0.37,4.75,2.5,9.02,6.73,10.65
			c-0.36,0.67-0.5,1.45-0.39,2.21c0.5,3.35,2.06,6.87,4.89,11.05c4.19,6.19,11.7,10.38,19.61,10.95c0.61,0.04,1.24,0.07,1.85,0.07
			c7.75,0,15.64-3.42,21.62-9.39c10.08-10.03,12.19-23.58,12.91-34.26c0.25-3.69,0.4-7.43,0.54-10.73
			c0.28-6.69,0.55-13.01,1.41-19.32c0.24-1.7,0.41-3.3,0.56-4.66c0.63-5.82,2.4-13.24,7.25-15.54c0.74-0.35,1.56-0.54,2.37-0.54
			c0.33,0,0.65,0.03,0.96,0.09c0.71,0.14,1.02,0.3,1.08,0.33c0.08,0.07,0.19,0.17,0.32,0.29v77.14c0,1.97,1.6,3.57,3.57,3.57h29.99
			c0.98,0,1.91-0.4,2.58-1.11c0.67-0.71,1.03-1.66,0.98-2.63c-0.15-3.1-0.14-6.34-0.12-9.46c0.01-2.28,0.02-4.63-0.03-6.92v-14
			l23.39,32.64c0.11,0.16,0.24,0.31,0.38,0.44c1.05,1.05,1.48,1.05,4.86,1.05l12.59,0c0.96,0,1.88-0.39,2.55-1.08
			c0.2-0.21,0.2-0.21,17.63-24.54l6.12-8.53v30.58c0,1.97,1.6,3.57,3.57,3.57h29.82c1.97,0,3.57-1.6,3.57-3.57V499
			C266.06,497.03,264.46,495.44,262.49,495.44z M91.18,517.05c-1.01,7.37-1.32,14.8-1.59,21.36c-0.14,3.31-0.29,6.83-0.51,10.19
			c-0.63,9.43-2.72,16.09-6.4,20.36c-2.13,2.47-5,4-7.48,4c-0.17,0-0.35-0.01-0.51-0.02c-0.42-0.06-1.63-0.84-2.55-2.37
			c0,0-0.02-0.03-0.03-0.06c0,0,0,0,0-0.01c0.96-0.4,1.87-0.95,2.68-1.65c2.03-1.74,3.27-4.17,3.47-6.84l0.02-0.28
			c0.06-0.78-0.14-1.53-0.53-2.15l14.16-48.79c-0.09,0.74-0.17,1.46-0.24,2.15C91.53,514.25,91.37,515.66,91.18,517.05z"/>
		<path class="st0" d="M279.95,581.27c-2.44,0-4.42-1.98-4.42-4.42V499c0-2.44,1.98-4.42,4.42-4.42h74.99c0.11,0,0.22,0,0.33,0
			c8.82,0,17.51,3.68,23.84,10.11c6.37,6.46,9.81,14.89,9.7,23.74c0.11,8.85-3.34,17.28-9.73,23.76
			c-6.32,6.41-14.96,10.08-23.71,10.08c0,0,0,0,0,0c-0.14,0-0.29,0-0.43,0h-40.21v14.58c0,2.44-1.98,4.42-4.42,4.42H279.95z
			 M347.37,530.61c0.63,0,1.07-0.18,1.51-0.62c0.49-0.49,0.67-0.92,0.67-1.57c0-0.77-0.23-1.14-0.6-1.5
			c-0.05-0.05-0.09-0.09-0.14-0.14c-0.42-0.44-0.82-0.6-1.44-0.6h-32.65v4.42H347.37z"/>
		<path class="st0" d="M354.96,499c16.04-0.17,29.66,13.32,29.42,29.42c0.23,16.04-13.38,29.66-29.42,29.42H310.3v19h-30.35V499
			H354.96z M347.37,535.03c1.8,0,3.36-0.64,4.63-1.91c1.33-1.33,1.97-2.9,1.97-4.69c0-1.85-0.64-3.42-1.97-4.69
			c-1.27-1.33-2.84-1.97-4.63-1.97H310.3v13.26H347.37z"/>
		<path class="st0" d="M464.47,581.27c-1.72,0-3.29-1-4.01-2.57l-4.96-10.75h-33.32l-4.96,10.75c-0.72,1.57-2.29,2.57-4.01,2.57
			h-34.17c-1.55,0-2.99-0.82-3.79-2.15c-0.8-1.33-0.84-2.99-0.1-4.36l41.76-77.85c0.77-1.43,2.27-2.33,3.89-2.33h36.09
			c1.63,0,3.12,0.9,3.89,2.33l41.76,77.85c0.73,1.37,0.7,3.02-0.1,4.36c-0.8,1.33-2.24,2.15-3.79,2.15H464.47z M442.6,540.11
			l-3.75-8.09l-3.77,8.09H442.6z"/>
		<path class="st0" d="M420.79,499h36.09l41.76,77.85h-34.17l-6.14-13.32h-38.98l-6.14,13.32h-34.17L420.79,499z M428.15,544.53
			h21.37l-10.66-22.99L428.15,544.53z"/>
		<path class="st0" d="M553.03,583.06c-22.23-0.04-37.67-4.72-47.19-14.31c-6.94-6.98-10.44-16.44-10.39-28.13l0-5.66
			c-0.06-15.29,5.91-26.66,17.74-33.78c9.56-5.74,22.59-8.57,39.84-8.64c16.2,0.03,29.13,2.66,38.45,7.82
			c11.58,6.41,17.97,16.65,18.97,30.45c0.09,1.22-0.34,2.43-1.17,3.33c-0.84,0.9-2.01,1.41-3.24,1.41h-31.1
			c-1.85,0-3.5-1.15-4.14-2.88c-1.13-3.05-4.17-6.55-17.72-6.56c-4.24,0.06-10.29,0.37-14.08,2.35c-2.16,1.13-4.37,3-4.29,8.34
			c0,0.02,0,2.01,0,2.03c-0.09,6.6,2.89,10.47,18.37,10.7c13.58-0.01,16.6-3.52,17.71-6.59c0.64-1.75,2.3-2.91,4.15-2.91h31.1
			c1.23,0,2.4,0.51,3.24,1.41c0.84,0.9,1.26,2.11,1.17,3.33c-1.01,13.83-7.39,24.09-18.97,30.5
			C582.14,580.45,569.21,583.06,553.03,583.06C553.03,583.06,553.03,583.06,553.03,583.06z"/>
		<path class="st0" d="M606.04,544.47c-1.91,26.3-24.96,34.17-53,34.17c-29.19-0.06-53.29-8.51-53.17-38v-5.68
			c-0.12-29.42,23.98-37.88,53.17-38c28.03,0.06,51.09,7.94,53,34.17h-31.1c-2.84-7.65-11.47-9.44-21.89-9.44
			c-12.4,0.17-22.94,2.37-22.76,15.18v1.91c-0.17,12.68,10.37,15,22.76,15.18c10.43,0,19.11-1.85,21.89-9.5H606.04z"/>
		<path class="st0" d="M655.06,581.27c-2.44,0-4.42-1.98-4.42-4.42V528.1h-31.67c-2.44,0-4.42-1.98-4.42-4.42V499
			c0-2.44,1.98-4.42,4.42-4.42H721.5c2.44,0,4.42,1.98,4.42,4.42v24.67c0,2.44-1.98,4.42-4.42,4.42h-31.67v48.75
			c0,2.44-1.98,4.42-4.42,4.42H655.06z"/>
		<path class="st0" d="M655.06,576.85v-53.17h-36.09V499H721.5v24.67h-36.09v53.17H655.06z"/>
		<path class="st0" d="M787.31,583.06c-22.23-0.04-37.67-4.72-47.19-14.3c-6.94-6.98-10.44-16.45-10.39-28.13l0-5.66
			c-0.05-11.68,3.45-21.16,10.39-28.14c9.51-9.57,24.95-14.24,47.2-14.28c17.25,0,30.28,2.81,39.85,8.6
			c11.74,7.11,17.7,18.49,17.7,33.81v5.68c0.05,11.67-3.45,21.14-10.39,28.12c-9.52,9.58-24.94,14.25-47.13,14.3
			C787.32,583.06,787.32,583.06,787.31,583.06C787.32,583.06,787.31,583.06,787.31,583.06z M787.32,526.07
			c-15.51,0.23-18.49,4.09-18.4,10.69c0,0.02,0,2.01,0,2.03c-0.09,6.64,2.89,10.53,18.4,10.75c15.46-0.23,18.43-4.12,18.34-10.75
			c0-0.02,0-2.01,0-2.03C805.75,530.16,802.78,526.3,787.32,526.07z"/>
		<path class="st0" d="M840.43,534.97v5.68c0.12,29.42-23.86,37.94-53.11,38c-29.31-0.06-53.29-8.57-53.17-38v-5.68
			c-0.12-29.48,23.86-37.94,53.17-38C816.63,496.97,840.43,505.55,840.43,534.97z M810.08,536.82c0.17-12.68-10.37-15-22.76-15.18
			c-12.45,0.17-22.99,2.49-22.82,15.18v1.91c-0.17,12.74,10.37,15.06,22.82,15.23c12.4-0.17,22.94-2.49,22.76-15.23V536.82z"/>
		<path class="st1" d="M354.96,499h-75.01v77.85h30.35v-19h44.66c12.32,0.18,23.2-7.8,27.48-18.78c1.3-3.32,2-6.92,1.94-10.64
			C384.61,512.32,371,498.83,354.96,499z M352,533.12c-1.27,1.27-2.84,1.91-4.63,1.91H310.3v-13.27h37.07c1.8,0,3.36,0.64,4.63,1.97
			c1.33,1.27,1.97,2.84,1.97,4.69C353.98,530.22,353.33,531.78,352,533.12z"/>
		<path class="st1" d="M470.71,524.79L456.88,499H420.8l-19.89,37.08l-21.87,40.77h34.17l6.14-13.32h38.98l6.14,13.32h34.17
			L470.71,524.79z M428.15,544.53l6.8-14.58l3.92-8.41l3.25,7.02l7.4,15.98H428.15z"/>
		<path class="st1" d="M553.04,553.97c-12.39-0.17-22.94-2.49-22.76-15.17v-1.91c-0.18-12.8,10.37-15,22.76-15.18
			c10.42,0,19.06,1.8,21.9,9.44h31.1c-0.33-4.61-1.32-8.65-2.88-12.18c-7.28-16.59-27.01-21.95-50.12-22
			c-24.48,0.1-45.36,6.06-51.4,25.32c-1.17,3.72-1.78,7.92-1.77,12.68v5.67c-0.11,29.48,23.98,37.94,53.17,38
			c28.03,0,51.09-7.88,53-34.18h-31.1C572.15,552.12,563.46,553.97,553.04,553.97z"/>
		<path class="st1" d="M618.97,499v24.67h36.09v53.18h30.35v-53.18h36.09V499H618.97z"/>
		<path class="st1" d="M787.32,496.97c-25.89,0.05-47.62,6.65-52.26,28.52c-0.62,2.88-0.93,6.04-0.92,9.48v5.67
			c-0.12,29.43,23.86,37.94,53.17,38c29.03-0.06,52.87-8.45,53.11-37.34c0.01-0.22,0.01-0.44,0.01-0.66v-5.67
			C840.43,505.55,816.63,496.97,787.32,496.97z M810.08,538.74c0.17,12.74-10.37,15.06-22.76,15.23c-12.45-0.17-23-2.49-22.82-15.23
			v-1.91c-0.04-3.21,0.59-5.74,1.78-7.75c3.49-5.96,11.73-7.28,21.04-7.42c11.98,0.17,22.24,2.34,22.75,13.96
			c0.02,0.39,0.02,0.8,0.02,1.21V538.74z"/>
		<path class="st2" d="M355.26,499c15.91,0,29.35,13.43,29.12,29.43c0.23,15.91-13.15,29.43-29.02,29.43c-0.13,0-0.27,0-0.4,0H310.3
			v19h-30.35V499h75.01C355.06,499,355.16,499,355.26,499 M310.3,535.03h37.07c1.8,0,3.36-0.64,4.63-1.91
			c1.33-1.33,1.97-2.9,1.97-4.69c0-1.85-0.64-3.42-1.97-4.69c-1.27-1.33-2.84-1.97-4.63-1.97H310.3V535.03 M355.27,497.81V499
			V497.81L355.27,497.81c-0.11,0-0.21,0-0.32,0l-75,0h-1.19V499v77.85v1.19h1.19h30.35h1.19v-1.19v-17.81h43.47c0.12,0,0.26,0,0.4,0
			c7.89,0,15.7-3.32,21.41-9.12c5.78-5.87,8.91-13.5,8.8-21.5c0.11-7.99-3-15.62-8.77-21.47
			C371.07,501.14,363.22,497.81,355.27,497.81L355.27,497.81z M311.49,522.95h35.88c1.51,0,2.74,0.52,3.77,1.6l0.02,0.02l0.02,0.02
			c1.08,1.03,1.6,2.28,1.6,3.83c0,1.5-0.53,2.76-1.62,3.85c-1.04,1.04-2.31,1.56-3.79,1.56h-35.88V522.95L311.49,522.95z"/>
		<path class="st2" d="M499.69,576.29l-41.76-77.84l-0.33-0.63h-37.51l-0.33,0.63l-41.76,77.84l-0.94,1.75h36.92l0.32-0.7
			l5.82-12.63h37.45l5.82,12.63l0.32,0.7h36.92L499.69,576.29z M464.47,576.85l-6.14-13.32h-38.98l-6.14,13.32h-34.17l21.87-40.77
			L420.8,499h36.09l13.83,25.79l27.93,52.06H464.47z M438.87,521.53l-3.92,8.41l-6.8,14.58h21.37l-7.4-15.98L438.87,521.53z
			 M447.66,543.34h-17.64l6.37-13.67l2.47-5.31l2.05,4.43L447.66,543.34z M442.12,528.55l-3.25-7.02l-3.92,8.41l-6.8,14.58h21.37
			L442.12,528.55z M436.39,529.67l2.47-5.31l2.05,4.43l6.75,14.55h-17.64L436.39,529.67z M442.12,528.55l-3.25-7.02l-3.92,8.41
			l-6.8,14.58h21.37L442.12,528.55z M436.39,529.67l2.47-5.31l2.05,4.43l6.75,14.55h-17.64L436.39,529.67z"/>
		<path class="st2" d="M553.04,496.97c28.03,0.06,51.09,7.94,53,34.17h-31.1c-2.84-7.65-11.47-9.44-21.89-9.44
			c-12.4,0.17-22.94,2.37-22.76,15.18v1.91c-0.17,12.68,10.37,15,22.76,15.18c10.43,0,19.11-1.85,21.89-9.5h31.1
			c-1.91,26.3-24.96,34.17-53,34.17c-29.19-0.06-53.29-8.51-53.17-38v-5.68C499.75,505.55,523.85,497.09,553.04,496.97
			 M553.04,495.78L553.04,495.78L553.04,495.78c-16.43,0.07-29.27,2.82-38.19,8.18c-10.79,6.48-16.23,16.92-16.17,31.01v5.67
			c-0.04,10.79,3.14,19.48,9.45,25.83c4.68,4.71,11.19,8.22,19.33,10.42c7.13,1.93,15.73,2.92,25.58,2.94
			c34.26,0,52.49-11.87,54.19-35.28l0.09-1.28h-1.28h-31.1h-0.83l-0.28,0.78c-2.19,6.03-8.6,8.72-20.78,8.72
			c-7.3-0.1-12.1-0.95-15.54-2.76c-4.13-2.17-6.11-5.84-6.03-11.21l0-1.93c-0.15-11.36,8.52-13.8,21.59-13.99
			c12.13,0,18.54,2.67,20.76,8.67l0.29,0.78h0.83h31.1h1.28l-0.09-1.28c-0.92-12.64-6.75-22.02-17.31-27.86
			C581.06,498.31,568.66,495.82,553.04,495.78L553.04,495.78z"/>
		<path class="st2" d="M721.5,499v24.67h-36.09v53.17h-30.35v-53.17h-36.09V499H721.5 M722.69,497.81h-1.19H618.98h-1.19V499v24.67
			v1.19h1.19h34.9v51.98v1.19h1.19h30.35h1.19v-1.19v-51.98h34.9h1.19v-1.19V499V497.81L722.69,497.81z"/>
		<path class="st2" d="M787.32,496.97c29.31,0,53.11,8.57,53.11,38v5.68c0.12,29.42-23.86,37.94-53.11,38
			c-29.31-0.06-53.29-8.57-53.17-38v-5.68C734.03,505.49,758.01,497.03,787.32,496.97 M787.32,553.97
			c12.4-0.17,22.94-2.49,22.76-15.23v-1.91c0.17-12.68-10.37-15-22.76-15.18c-12.45,0.17-22.99,2.49-22.82,15.18v1.91
			C764.32,551.48,774.87,553.8,787.32,553.97 M787.32,495.78L787.32,495.78L787.32,495.78c-21.35,0.04-36.04,4.4-44.91,13.33
			c-6.31,6.35-9.49,15.05-9.45,25.86v5.67c-0.04,10.79,3.14,19.49,9.45,25.84c4.68,4.7,11.17,8.21,19.3,10.41
			c7.13,1.93,15.75,2.92,25.6,2.94c21-0.04,36.09-4.53,44.85-13.34c6.31-6.35,9.5-15.05,9.45-25.85v-5.67
			c0-14.12-5.43-24.57-16.14-31.05C816.57,498.52,803.72,495.78,787.32,495.78L787.32,495.78z M787.32,552.78
			c-7.34-0.1-12.15-0.96-15.59-2.77c-4.14-2.18-6.11-5.86-6.04-11.26l0-1.93c-0.07-5.39,1.9-9.06,6.04-11.23
			c3.44-1.81,8.25-2.66,15.59-2.76c7.31,0.1,12.11,0.95,15.54,2.76c4.13,2.17,6.11,5.84,6.03,11.21l0,1.93
			c0.07,5.42-1.9,9.1-6.03,11.28C799.43,551.82,794.63,552.68,787.32,552.78L787.32,552.78z"/>
		<g>
			<path class="st1" d="M99.55,415l-0.28,2.17l-14.2-1.72c-0.1-0.01-0.19-0.01-0.28-0.01c-0.61,0.05-1.11,0.52-1.19,1.15l-0.65,5.04
				c-0.04,0.35,0.05,0.7,0.27,0.98c0.22,0.28,0.53,0.46,0.89,0.5l14.18,1.72l-0.17,1.33l-14.2-1.72c-0.09-0.01-0.19-0.01-0.28-0.01
				c-0.61,0.05-1.11,0.52-1.19,1.15l-0.65,5.04c-0.04,0.35,0.05,0.7,0.27,0.98c0.22,0.28,0.53,0.46,0.89,0.5l14.18,1.72l-0.17,1.33
				l-14.2-1.72c-0.09-0.01-0.19-0.01-0.28-0.01c-0.61,0.05-1.11,0.52-1.19,1.15l-0.65,5.04c-0.04,0.35,0.05,0.7,0.27,0.98
				c0.22,0.28,0.53,0.46,0.88,0.5l14.18,1.72l-0.17,1.33l-14.2-1.72c-0.09-0.01-0.19-0.01-0.28,0c-0.6,0.05-1.11,0.52-1.19,1.15
				l-0.65,5.04c-0.04,0.35,0.05,0.7,0.27,0.98c0.21,0.28,0.53,0.46,0.88,0.5l14.18,1.72l-2.69,20.91
				c-0.98,7.66-8.17,13.15-15.96,12.2l-11.53-1.4c-7.79-0.95-13.36-7.99-12.38-15.64l2.69-20.89l14.27,1.73
				c0.09,0.01,0.19,0.01,0.28,0.01c0.61-0.05,1.11-0.52,1.19-1.15l0.65-5.04c0.04-0.35-0.05-0.7-0.27-0.98
				c-0.22-0.28-0.53-0.46-0.89-0.5l-14.25-1.73l0.17-1.33l14.27,1.73c0.09,0.01,0.19,0.01,0.28,0.01c0.61-0.05,1.11-0.52,1.19-1.15
				l0.65-5.04c0.04-0.35-0.05-0.7-0.27-0.98c-0.22-0.28-0.53-0.46-0.89-0.5l-14.25-1.73l0.17-1.33l14.27,1.73
				c0.09,0.01,0.19,0.01,0.28,0c0.61-0.05,1.11-0.52,1.19-1.15l0.65-5.04c0.05-0.35-0.05-0.7-0.27-0.98
				c-0.22-0.28-0.53-0.46-0.88-0.5l-14.25-1.73l0.17-1.33l14.27,1.73c0.09,0.01,0.19,0.01,0.28,0c0.6-0.05,1.11-0.52,1.19-1.15
				l0.65-5.04c0.04-0.35-0.05-0.7-0.27-0.98c-0.22-0.28-0.54-0.46-0.89-0.5l-14.25-1.73l0.28-2.19c0.98-7.66,8.17-13.15,15.96-12.2
				l11.53,1.4C94.97,400.3,100.54,407.34,99.55,415z"/>
			<path class="st1" d="M88.86,389.34l-12.3-1.49c-12.64-1.54-24.23,7.32-25.83,19.74l-2.81,21.81l-3.1-0.38l-2.02,15.72l3.1,0.37
				l-2.86,22.21c-1.6,12.42,7.39,23.78,20.03,25.31l12.3,1.5c12.64,1.53,24.23-7.32,25.83-19.74l2.17-16.88l2.86,0.35l2.02-15.72
				l-2.86-0.35l3.49-27.14C110.48,402.22,101.5,390.87,88.86,389.34z M102.89,413.92l-4.09,31.79l-3.59,27.94
				c-1.18,9.18-9.74,15.72-19.08,14.59l-12.3-1.49c-9.34-1.13-15.98-9.52-14.79-18.7l4.15-32.24l3.54-27.5
				c1.18-9.18,9.74-15.72,19.08-14.59l12.3,1.5C97.44,396.36,104.07,404.74,102.89,413.92z"/>
			<polygon class="st1" points="73.5,415.39 57.38,413.43 56.73,418.47 72.85,420.43 			"/>
			<polygon class="st1" points="72.34,424.39 56.22,422.43 55.57,427.47 71.69,429.43 			"/>
			<polygon class="st1" points="71.18,433.39 55.06,431.43 54.41,436.47 70.53,438.43 			"/>
			<polygon class="st1" points="70.02,442.38 53.91,440.43 53.26,445.47 69.38,447.42 			"/>
			<polygon class="st1" points="84.26,421.8 100.38,423.76 101.03,418.72 84.91,416.76 			"/>
			<polygon class="st1" points="83.11,430.8 99.22,432.76 99.87,427.72 83.75,425.76 			"/>
			<polygon class="st1" points="81.95,439.8 98.07,441.75 98.71,436.71 82.6,434.76 			"/>
			<polygon class="st1" points="80.79,448.79 96.91,450.75 97.56,445.71 81.44,443.76 			"/>
			<path class="st1" d="M92.99,493.26l-13.43,46.27l-5.89,20.28l-26.08-2.5l-0.51-25.76l-0.87-44c4.26,4.7,10.03,7.69,16.45,8.47
				l12.3,1.49c1.87,0.23,3.77,0.26,5.64,0.09C85.03,497.21,89.3,495.7,92.99,493.26z"/>
			<path class="st1" d="M52.91,566.25l14.88,1.15c3.4,0.26,6.37-2.28,6.63-5.68l-27.67-2.66C46.47,562.75,49.22,565.97,52.91,566.25
				z"/>
			<path class="st2" d="M79.22,485.14c-1.01,0.09-2.04,0.08-3.08-0.05l-11.53-1.4c-3.85-0.47-7.28-2.4-9.65-5.45
				c-2.32-2.98-3.33-6.65-2.85-10.35l2.71-21.04l14.42,1.75c0.08,0.01,0.16,0.01,0.25,0.01c0.55-0.05,0.99-0.48,1.06-1.03l0.65-5.04
				c0.04-0.31-0.05-0.63-0.24-0.88c-0.19-0.25-0.47-0.41-0.79-0.45l-14.4-1.75l0.21-1.62l14.42,1.75c0.09,0.01,0.17,0.01,0.25,0.01
				c0.55-0.05,0.99-0.48,1.06-1.03l0.65-5.04c0.04-0.32-0.04-0.63-0.24-0.88c-0.19-0.25-0.48-0.41-0.79-0.45l-14.4-1.75l0.21-1.62
				l14.41,1.75c0.66,0.07,1.23-0.39,1.31-1.02l0.65-5.04c0.04-0.31-0.04-0.62-0.24-0.87c-0.19-0.25-0.47-0.41-0.79-0.45l-14.4-1.75
				l0.21-1.62l14.41,1.75c0.08,0.01,0.17,0.01,0.25,0c0.55-0.05,0.99-0.48,1.06-1.02l0.65-5.04c0.04-0.31-0.05-0.63-0.24-0.87
				c-0.19-0.25-0.48-0.41-0.79-0.45l-14.4-1.75l0.3-2.33c1-7.76,8.23-13.29,16.12-12.32l11.53,1.4c3.85,0.47,7.28,2.4,9.65,5.45
				c2.32,2.98,3.33,6.65,2.85,10.35l0,0l-0.3,2.32l-14.34-1.74c-0.64-0.08-1.23,0.39-1.31,1.02l-0.65,5.04
				c-0.04,0.31,0.05,0.63,0.24,0.88c0.2,0.25,0.48,0.41,0.79,0.45l14.32,1.74l-0.21,1.62l-14.34-1.74
				c-0.08-0.01-0.16-0.01-0.25-0.01c-0.55,0.05-0.99,0.48-1.06,1.03l-0.65,5.04c-0.04,0.31,0.05,0.63,0.24,0.88
				c0.19,0.25,0.47,0.41,0.79,0.45l14.33,1.74l-0.21,1.62l-14.34-1.74c-0.08-0.01-0.16-0.01-0.25-0.01
				c-0.55,0.05-0.99,0.48-1.06,1.03l-0.65,5.04c-0.04,0.32,0.04,0.63,0.24,0.88c0.19,0.25,0.47,0.41,0.79,0.45l14.33,1.74
				l-0.21,1.62l-14.34-1.74c-0.08-0.01-0.17-0.01-0.25,0c-0.55,0.05-0.99,0.48-1.06,1.02l-0.65,5.04c-0.04,0.31,0.05,0.62,0.24,0.87
				c0.19,0.25,0.48,0.41,0.79,0.45l14.33,1.74l-2.71,21.06C91.4,479.49,85.84,484.55,79.22,485.14z M55.07,447.17l-2.67,20.75
				c-0.47,3.62,0.53,7.22,2.8,10.14c2.32,2.99,5.68,4.89,9.46,5.34l11.53,1.4c7.74,0.94,14.82-4.48,15.8-12.08l2.67-20.77
				l-14.04-1.7c-0.39-0.05-0.74-0.25-0.98-0.56c-0.24-0.31-0.35-0.7-0.3-1.09l0.65-5.04c0.09-0.68,0.64-1.21,1.32-1.27
				c0.1-0.01,0.21-0.01,0.31,0L95.67,444l0.13-1.05l-14.04-1.7c-0.39-0.05-0.74-0.25-0.98-0.56c-0.24-0.31-0.35-0.7-0.3-1.09
				l0.65-5.04c0.09-0.68,0.64-1.22,1.32-1.28c0.1-0.01,0.21-0.01,0.31,0.01l14.06,1.71l0.14-1.05l-14.04-1.7
				c-0.39-0.05-0.74-0.25-0.98-0.56c-0.24-0.31-0.35-0.7-0.3-1.09l0.65-5.04c0.09-0.68,0.64-1.22,1.32-1.28
				c0.1-0.01,0.21-0.01,0.31,0.01l14.06,1.71l0.13-1.05l-14.04-1.71c-0.39-0.05-0.74-0.24-0.98-0.55c-0.24-0.31-0.35-0.7-0.3-1.09
				l0.65-5.04c0.09-0.68,0.64-1.22,1.32-1.28c0.1-0.01,0.21-0.01,0.31,0.01l14.06,1.71l0.26-2.03c0.47-3.62-0.53-7.22-2.79-10.14
				c-2.32-2.99-5.68-4.89-9.46-5.34l-11.53-1.4c-7.73-0.94-14.82,4.48-15.8,12.08l-0.26,2.05l14.11,1.71
				c0.39,0.05,0.74,0.25,0.98,0.56c0.24,0.3,0.35,0.7,0.3,1.09l-0.65,5.04c-0.09,0.68-0.64,1.21-1.32,1.27
				c-0.1,0.01-0.21,0.01-0.31,0l-14.13-1.72l-0.13,1.05l14.11,1.71c0.39,0.05,0.74,0.25,0.98,0.56c0.24,0.31,0.35,0.7,0.3,1.09
				l-0.65,5.04c-0.1,0.79-0.81,1.36-1.63,1.27l-14.13-1.72l-0.13,1.05l14.11,1.71c0.39,0.05,0.74,0.25,0.98,0.56
				c0.24,0.31,0.35,0.7,0.3,1.09l-0.65,5.04c-0.09,0.68-0.64,1.22-1.32,1.28c-0.09,0.01-0.2,0.01-0.31-0.01l-14.13-1.72l-0.13,1.05
				l14.11,1.71c0.39,0.05,0.74,0.25,0.98,0.56c0.24,0.31,0.35,0.7,0.3,1.09l-0.65,5.04c-0.09,0.68-0.64,1.22-1.32,1.28
				c-0.1,0.01-0.21,0.01-0.31-0.01L55.07,447.17z"/>
			<path class="st2" d="M80.33,494.5c-1.63,0.15-3.3,0.12-4.99-0.08l-12.3-1.49c-6.26-0.76-11.83-3.9-15.67-8.83
				c-3.75-4.82-5.39-10.79-4.61-16.8l2.82-21.92l-3.1-0.38l2.1-16.29l3.1,0.38l2.77-21.53c1.62-12.58,13.35-21.55,26.15-19.99
				l12.3,1.49c6.26,0.76,11.83,3.9,15.67,8.83c3.75,4.82,5.39,10.79,4.61,16.8l-3.45,26.85l2.86,0.35l-2.1,16.29l-2.86-0.35
				l-2.14,16.59C100.08,485.34,91.06,493.54,80.33,494.5z M43.12,444.49l3.1,0.38l-2.89,22.5c-0.75,5.86,0.84,11.67,4.5,16.37
				c3.74,4.81,9.17,7.87,15.28,8.62l12.3,1.49c1.65,0.2,3.28,0.22,4.87,0.08c10.47-0.93,19.27-8.93,20.64-19.57l2.21-17.16
				l2.86,0.35l1.95-15.15l-2.86-0.35l3.53-27.43c0.75-5.86-0.84-11.67-4.5-16.37c-3.74-4.81-9.17-7.87-15.28-8.62l-12.3-1.49
				c-12.49-1.52-23.93,7.23-25.51,19.49l-2.84,22.09l-3.1-0.38L43.12,444.49z M79.8,488.59c-1.21,0.11-2.45,0.09-3.7-0.06
				l-12.3-1.49c-4.65-0.56-8.78-2.89-11.62-6.55c-2.78-3.58-4-8-3.42-12.47l0.29,0.04l-0.29-0.04l7.69-59.74
				c1.2-9.33,9.9-15.99,19.4-14.83l12.3,1.49c4.65,0.56,8.77,2.89,11.62,6.55c2.78,3.58,4,8,3.42,12.47l-7.69,59.74
				C94.45,481.79,87.75,487.88,79.8,488.59z M72.18,393.96c-7.7,0.69-14.17,6.56-15.17,14.39l-7.69,59.74
				c-0.55,4.31,0.62,8.58,3.31,12.04c2.75,3.54,6.74,5.79,11.24,6.34l12.3,1.49c9.18,1.12,17.6-5.32,18.76-14.33l7.69-59.74
				c0.55-4.31-0.62-8.58-3.31-12.04c-2.75-3.54-6.74-5.79-11.24-6.34l-12.3-1.49C74.55,393.87,73.35,393.85,72.18,393.96z"/>
			<path class="st2" d="M72.97,420.59l-16.4-1.99l0.69-5.32l16.4,1.99L72.97,420.59z M56.89,418.35l15.83,1.92l0.61-4.75
				l-15.83-1.92L56.89,418.35z"/>
			<path class="st2" d="M71.82,429.59l-16.4-1.99l0.69-5.32l16.4,1.99L71.82,429.59z M55.73,427.35l15.83,1.92l0.61-4.75
				l-15.83-1.92L55.73,427.35z"/>
			<path class="st2" d="M70.66,438.59l-16.4-1.99l0.69-5.32l16.4,1.99L70.66,438.59z M54.58,436.34l15.83,1.92l0.61-4.75
				l-15.83-1.92L54.58,436.34z"/>
			<path class="st2" d="M69.5,447.58l-16.4-1.99l0.69-5.32l16.4,1.99L69.5,447.58z M53.42,445.34l15.83,1.92l0.61-4.75l-15.83-1.92
				L53.42,445.34z"/>
			<path class="st2" d="M100.51,423.92l-16.4-1.99l0.69-5.32l16.4,1.99L100.51,423.92z M84.42,421.67l15.83,1.92l0.61-4.75
				l-15.83-1.92L84.42,421.67z"/>
			<path class="st2" d="M99.35,432.92l-16.4-1.99l0.69-5.32l16.4,1.99L99.35,432.92z M83.27,430.67l15.83,1.92l0.61-4.75
				l-15.83-1.92L83.27,430.67z"/>
			<path class="st2" d="M98.19,441.91l-16.4-1.99l0.69-5.32l16.4,1.99L98.19,441.91z M82.11,439.67l15.83,1.92l0.61-4.75
				l-15.83-1.92L82.11,439.67z"/>
			<path class="st2" d="M97.03,450.91l-16.4-1.99l0.69-5.32l16.4,1.99L97.03,450.91z M80.95,448.67l15.83,1.92l0.61-4.75
				l-15.83-1.92L80.95,448.67z"/>
			<path class="st2" d="M73.89,560.12l-0.24-0.02l-26.34-2.53l-1.4-70.78l0.52,0.57c4.21,4.64,9.99,7.61,16.28,8.38l12.3,1.49
				c1.86,0.23,3.74,0.26,5.58,0.09c4.35-0.39,8.59-1.87,12.26-4.3l0.65-0.43L73.89,560.12z M47.87,557.04l25.59,2.46l19.04-65.58
				c-3.6,2.23-7.68,3.6-11.87,3.97c-1.89,0.17-3.8,0.14-5.7-0.09l-12.3-1.49c-6.17-0.75-11.87-3.58-16.12-8.01L47.87,557.04z"/>
			<path class="st2" d="M68.85,567.68c-0.36,0.03-0.72,0.03-1.09,0.01l-14.88-1.15c-3.84-0.3-6.72-3.66-6.42-7.49l0.02-0.29
				l0.29,0.03l27.95,2.68l-0.02,0.28c-0.13,1.72-0.93,3.29-2.24,4.41C71.43,567.04,70.18,567.56,68.85,567.68z M47.02,559.38
				c-0.11,3.4,2.48,6.32,5.91,6.58l14.88,1.15c1.57,0.12,3.09-0.38,4.28-1.4c1.12-0.96,1.83-2.28,2.01-3.73L47.02,559.38z"/>
		</g>
		<path class="st1" d="M262.49,499v78.12h-29.82v-41.68L220.08,553c0,0-17.27,24.11-17.28,24.13c0,0-14.92,0-14.93-0.01
			l-18.63-25.99l-11.23-15.68v25.15c0.13,5.39-0.1,11.01,0.16,16.51h-29.99c0,0,0-78.66,0-78.71c0,0.01-1.48-1.37-1.66-1.52
			c-0.71-0.56-1.74-0.86-2.6-1.04c-1.86-0.37-3.84-0.09-5.55,0.72c-6.48,3.07-8.57,11.82-9.27,18.39c-0.16,1.46-0.33,2.97-0.55,4.56
			c-0.88,6.44-1.15,12.86-1.44,19.66c-0.15,3.47-0.3,7.05-0.54,10.64c-0.79,11.75-3.3,23.45-11.86,31.97
			c-5.47,5.45-13.09,8.84-20.71,8.3c-6.47-0.46-13.22-3.93-16.91-9.39c-1.9-2.81-3.81-6.2-4.31-9.58l14.3,1.03
			c0.28,0.02,0.55,0.04,0.83,0.04c0.34,0,0.68-0.02,1.01-0.05c0.04,0.09,0.09,0.17,0.15,0.26c1.37,2.3,3.5,3.94,5.29,4.11
			c3.74,0.34,7.96-1.65,11.03-5.2c4.2-4.88,6.57-12.22,7.25-22.46c0.23-3.41,0.38-6.9,0.52-10.28c0.29-6.84,0.59-13.9,1.56-21.03
			c0.19-1.4,0.36-2.82,0.51-4.2c1.24-11.11,3.07-22.21,12.92-28.28c8.94-5.52,21.02-6.39,31.26-4.26
			c17.16,3.59,25.55,17.47,35.51,30.52c6.81,8.92,13.62,17.84,20.42,26.76L225.22,499H262.49z"/>
		<path class="st2" d="M128.97,479.72c3.56,0,7.09,0.38,10.43,1.07c17.16,3.59,25.55,17.47,35.51,30.52
			c6.81,8.92,13.62,17.84,20.42,26.76L225.22,499h37.27v78.12h-29.82v-41.68L220.08,553c0,0-17.27,24.11-17.28,24.13
			c0,0-14.92,0-14.93-0.01l-18.63-25.99l-11.23-15.68v25.15c0.13,5.39-0.1,11.01,0.16,16.51h-29.99c0,0,0-78.66,0-78.71c0,0,0,0,0,0
			c-0.01,0-1.48-1.37-1.66-1.52c-0.71-0.56-1.74-0.86-2.6-1.04c-0.55-0.11-1.1-0.16-1.66-0.16c-1.34,0-2.68,0.31-3.89,0.88
			c-6.48,3.07-8.57,11.82-9.27,18.39c-0.16,1.46-0.33,2.97-0.55,4.56c-0.88,6.44-1.15,12.86-1.44,19.66
			c-0.15,3.47-0.3,7.05-0.54,10.64c-0.79,11.75-3.3,23.45-11.86,31.97c-5.08,5.07-12.03,8.35-19.11,8.35c-0.53,0-1.07-0.02-1.6-0.06
			c-6.47-0.46-13.22-3.93-16.91-9.39c-1.9-2.81-3.81-6.2-4.31-9.58l14.3,1.03c0.28,0.02,0.55,0.04,0.83,0.04
			c0.34,0,0.68-0.02,1.01-0.05c0.04,0.09,0.09,0.17,0.15,0.26c1.37,2.3,3.5,3.94,5.29,4.11c0.28,0.03,0.56,0.04,0.84,0.04
			c3.52,0,7.35-1.96,10.18-5.24c4.2-4.88,6.57-12.22,7.25-22.46c0.23-3.41,0.38-6.9,0.52-10.28c0.29-6.84,0.59-13.9,1.56-21.03
			c0.19-1.4,0.36-2.82,0.51-4.2c1.24-11.11,3.07-22.21,12.92-28.28C114.16,481.33,121.62,479.72,128.97,479.72 M128.97,478.53
			c-8.2,0-15.61,1.9-21.44,5.5c-10.13,6.25-12.16,17.36-13.47,29.17c-0.15,1.33-0.31,2.75-0.5,4.17c-0.99,7.27-1.3,14.64-1.57,21.14
			c-0.14,3.33-0.29,6.86-0.52,10.25c-0.66,9.96-2.94,17.07-6.97,21.75c-2.61,3.03-6.09,4.84-9.31,4.84c-0.25,0-0.5-0.01-0.74-0.03
			c-1.42-0.13-3.23-1.59-4.4-3.55l-0.03-0.05c-0.02-0.03-0.04-0.07-0.06-0.1l-0.36-0.75l-0.82,0.07c-0.29,0.03-0.59,0.05-0.89,0.05
			c-0.25,0-0.49-0.01-0.74-0.03l-14.32-1.04l-1.45-0.11l0.22,1.47c0.45,2.99,1.88,6.2,4.51,10.08c3.73,5.51,10.71,9.39,17.79,9.9
			c0.56,0.04,1.12,0.06,1.68,0.06c7.12,0,14.38-3.17,19.92-8.69c9.52-9.47,11.53-22.47,12.21-32.74c0.24-3.65,0.4-7.38,0.54-10.67
			c0.28-6.75,0.55-13.12,1.43-19.55c0.23-1.65,0.41-3.24,0.55-4.59c0.69-6.42,2.75-14.66,8.61-17.44c1.06-0.5,2.24-0.77,3.4-0.77
			c0.49,0,0.97,0.05,1.43,0.14c1.21,0.24,1.82,0.57,2.11,0.81c0.12,0.1,0.83,0.76,1.18,1.08c0.01,0.01,0.02,0.02,0.03,0.03
			c0,6.87,0,78.18,0,78.18v1.19h1.16h29.99h1.22l-0.06-1.25c-0.15-3.17-0.14-6.43-0.13-9.58c0.01-2.27,0.02-4.63-0.03-6.9l0-21.48
			l9.13,12.74l18.63,25.99l0.05,0.07l0.06,0.07c0.34,0.35,0.34,0.35,3.16,0.35c1.4,0,3.27,0,5.13,0l7.46,0h0.49l0.34-0.35
			c0.07-0.07,0.07-0.07,17.4-24.26l10.48-14.62v38.04v1.19h1.16h29.82h1.16v-1.19V499v-1.19h-1.16h-37.27h-0.57l-0.35,0.46
			l-28.97,37.86l-2.42-3.17c-5.7-7.46-11.39-14.92-17.09-22.39c-1.17-1.53-2.34-3.1-3.46-4.62c-8.83-11.87-17.16-23.08-32.73-26.34
			C136.14,478.9,132.56,478.53,128.97,478.53L128.97,478.53z"/>
	</g>
</g>
</svg>
